<svg width="196" height="21" viewBox="0 0 196 21" fill="none" xmlns="http://www.w3.org/2000/svg">
<path d="M0.311276 15.1494C0.103759 15.1494 0 15.0478 0 14.8447C0 14.7491 0.0345862 14.6237 0.103759 14.4683C0.18446 14.3011 0.253632 14.1517 0.311276 14.0203C0.657138 13.2676 1.11252 12.3775 1.67743 11.3501C2.25387 10.3226 2.93983 9.16369 3.73531 7.87337C3.42403 7.87337 3.2684 7.77779 3.2684 7.58663C3.2684 7.38352 3.37792 7.28197 3.59697 7.28197L4.11576 7.29989C4.47315 6.73836 4.77866 6.26644 5.03229 5.88412C5.28592 5.5018 5.48768 5.20311 5.63755 4.98806C5.89118 4.64158 6.16211 4.29511 6.45033 3.94863C6.75007 3.59021 7.07864 3.24374 7.43603 2.90921C7.97788 2.78973 8.53126 2.7061 9.09617 2.65831C9.67261 2.59857 10.2548 2.56871 10.8428 2.56871C11.8804 2.56871 12.6067 2.62247 13.0217 2.73C13.1716 2.76584 13.2696 2.80765 13.3157 2.85544C13.3733 2.90323 13.4022 2.96894 13.4022 3.05258C13.4022 3.25568 13.3157 3.35724 13.1428 3.35724C13.0044 3.35724 12.7393 3.32737 12.3473 3.26763C11.9553 3.19595 11.3558 3.1601 10.5488 3.1601C10.1568 3.1601 9.72449 3.184 9.25181 3.23179C8.77913 3.27958 8.26034 3.35126 7.69543 3.44684C7.21122 3.82916 6.23705 5.11351 4.7729 7.29989H9.00971C9.19417 7.29989 9.2864 7.39547 9.2864 7.58663C9.2864 7.77779 9.19417 7.87337 9.00971 7.87337H4.40974C2.73807 10.5257 1.51026 12.7121 0.72631 14.4325C3.83907 13.7157 6.19093 13.3572 7.7819 13.3572C8.88865 13.3572 9.44203 13.632 9.44203 14.1816C9.44203 14.3728 9.3498 14.4683 9.16534 14.4683C9.01547 14.4683 8.93477 14.4086 8.92324 14.2891C8.91171 14.1577 8.80795 14.0741 8.61197 14.0382C8.4275 13.9904 8.13352 13.9666 7.73002 13.9666C7.22275 13.9666 6.65208 14.0084 6.018 14.092C5.39545 14.1637 4.72678 14.2593 4.012 14.3787C2.99747 14.5341 2.17317 14.7013 1.53909 14.8805C0.905006 15.0597 0.495736 15.1494 0.311276 15.1494Z" fill="white"/>
<path d="M12.7342 14.9343C12.5497 14.9343 12.4575 14.8566 12.4575 14.7013C12.4575 14.6416 12.4806 14.5699 12.5267 14.4863C12.5728 14.3907 12.6132 14.313 12.6477 14.2533L14.2041 11.0096C14.8728 9.59977 15.2071 8.81721 15.2071 8.6619C15.2071 8.49463 15.2878 8.411 15.4492 8.411C15.6683 8.411 15.7778 8.53047 15.7778 8.76942C15.7778 8.85306 15.7259 9.03227 15.6222 9.30706C15.5184 9.58185 15.3858 9.89248 15.2244 10.239C14.9477 10.8602 14.7171 11.3381 14.5327 11.6726C14.8786 11.2545 15.2302 10.8602 15.5876 10.4899C15.945 10.1195 16.3081 9.76703 16.677 9.4325C17.7723 8.44087 18.6139 7.94505 19.2018 7.94505C19.6053 7.94505 19.8071 8.14218 19.8071 8.53645C19.8071 8.89487 19.5131 9.70132 18.9251 10.9558C18.3372 12.2222 18.0432 13.0227 18.0432 13.3572C18.0432 13.5126 18.0951 13.5902 18.1988 13.5902C18.2334 13.5902 18.2853 13.5783 18.3545 13.5544C18.4352 13.5185 18.5159 13.5006 18.5966 13.5006C18.7926 13.5006 18.8906 13.5962 18.8906 13.7873C18.8906 14.0263 18.6427 14.1458 18.1469 14.1458C17.9164 14.1458 17.7492 14.092 17.6454 13.9845C17.5417 13.865 17.4898 13.7097 17.4898 13.5185C17.4898 12.945 17.7723 12.0729 18.3372 10.902C18.9021 9.74314 19.1845 9.04421 19.1845 8.80526C19.1845 8.66189 19.1327 8.59021 19.0289 8.59021C18.7753 8.59021 18.366 8.81124 17.8011 9.25329C17.1901 9.73119 16.579 10.2808 15.968 10.902C15.357 11.5233 14.7748 12.2342 14.2214 13.0347L13.0109 14.773C12.9417 14.8805 12.8495 14.9343 12.7342 14.9343Z" fill="white"/>
<path d="M24.8473 7.42534C24.6514 7.42534 24.5534 7.32378 24.5534 7.12068C24.5534 7.06094 24.5937 6.95341 24.6744 6.7981C24.7551 6.63083 24.8473 6.46357 24.9511 6.2963C25.0549 6.12904 25.1356 6.01554 25.1932 5.9558C25.3892 5.7288 25.5391 5.58543 25.6428 5.5257C25.7581 5.46596 25.8619 5.43609 25.9541 5.43609C26.1962 5.43609 26.3173 5.54959 26.3173 5.77659C26.3173 5.86022 26.2654 5.96178 26.1616 6.08125C26.0694 6.18878 25.9599 6.29033 25.8331 6.38591C25.6486 6.50538 25.5333 6.60096 25.4872 6.67265L25.1067 7.2282C25.0952 7.27599 25.0664 7.32378 25.0203 7.37157C24.9857 7.40742 24.928 7.42534 24.8473 7.42534ZM18.7429 20.454C18.4316 20.454 18.178 20.3405 17.982 20.1135C17.7745 19.8985 17.6246 19.6296 17.5324 19.3071C17.4286 18.9964 17.3767 18.6977 17.3767 18.411C17.3767 18.0645 17.4113 17.7479 17.4805 17.4612C17.5727 17.043 17.7226 16.8339 17.9301 16.8339C18.1146 16.8339 18.2068 16.9235 18.2068 17.1028C18.2068 17.1505 18.1837 17.2163 18.1376 17.2999C18.0915 17.3835 18.0569 17.4552 18.0339 17.5149C17.9647 17.7061 17.9301 17.951 17.9301 18.2497C17.9301 18.6201 17.9993 18.9725 18.1376 19.3071C18.276 19.6535 18.495 19.8268 18.7948 19.8268C19.0253 19.8268 19.2559 19.7312 19.4865 19.54C19.7171 19.3489 19.9419 19.104 20.1609 18.8053C20.3684 18.5185 20.5644 18.2139 20.7489 17.8913C20.9218 17.5687 21.0659 17.27 21.1812 16.9952C21.3426 16.6249 21.504 16.2246 21.6654 15.7945C21.8268 15.3644 21.9709 14.9522 22.0977 14.558C22.2361 14.1637 22.3283 13.8471 22.3744 13.6081C22.4667 13.1302 22.5589 12.6583 22.6511 12.1924C22.7549 11.7145 22.8586 11.2366 22.9624 10.7587C23.1584 9.9104 23.3544 9.319 23.5504 8.98448C23.7464 8.64995 23.925 8.48269 24.0865 8.48269C24.1672 8.48269 24.2594 8.51853 24.3631 8.59021C24.4784 8.6619 24.5361 8.74553 24.5361 8.84111C24.5361 8.8889 24.4208 9.1159 24.1902 9.52211C24.0634 9.74911 23.9654 9.92832 23.8962 10.0597C23.8271 10.1912 23.7809 10.2808 23.7579 10.3286C23.7233 10.4122 23.6714 10.5914 23.6022 10.8662C23.5331 11.141 23.4524 11.4695 23.3601 11.8519C23.2794 12.2222 23.193 12.6045 23.1007 12.9988C23.0085 13.3931 22.9221 13.7575 22.8413 14.092C22.7722 14.4146 22.7088 14.6655 22.6511 14.8447C22.4667 15.466 22.2476 16.0753 21.994 16.6726C21.7404 17.27 21.4694 17.8136 21.1812 18.3035C20.3396 19.7372 19.5268 20.454 18.7429 20.454Z" fill="white"/>
<path d="M28.1626 14.3967C27.2288 14.3967 26.7619 13.8531 26.7619 12.7658C26.7619 12.264 26.8772 11.7384 27.1077 11.1888C27.3383 10.6392 27.6438 10.1314 28.0243 9.66548C28.4047 9.18758 28.8255 8.79929 29.2867 8.50061C29.7594 8.20192 30.2378 8.05258 30.722 8.05258C31.1486 8.05258 31.4598 8.21984 31.6558 8.55437C31.8518 8.8889 31.9498 9.25927 31.9498 9.66548C31.9498 10.2031 31.8461 10.7527 31.6385 11.3142C31.431 11.8638 31.1486 12.3716 30.7912 12.8375C30.4338 13.3035 30.0303 13.6798 29.5807 13.9666C29.131 14.2533 28.6584 14.3967 28.1626 14.3967ZM28.1453 13.8232C28.2145 13.8232 28.2549 13.8172 28.2664 13.8053C28.716 13.7455 29.131 13.5783 29.5115 13.3035C29.8919 13.0287 30.2205 12.6882 30.4972 12.282C30.7854 11.8638 31.0045 11.4158 31.1543 10.9379C31.3042 10.46 31.3791 9.98806 31.3791 9.52211C31.3791 9.24732 31.3042 9.03227 31.1543 8.87695C31.0045 8.72163 30.8142 8.64397 30.5837 8.64397C30.2493 8.64397 29.8919 8.78734 29.5115 9.07408C29.1426 9.36082 28.7909 9.72522 28.4566 10.1673C28.1338 10.6093 27.8686 11.0753 27.6611 11.5651C27.4536 12.043 27.3498 12.4731 27.3498 12.8554C27.3498 13.5006 27.615 13.8232 28.1453 13.8232Z" fill="white"/>
<path d="M34.0078 20.4182C33.3046 20.4182 32.9529 19.9881 32.9529 19.1278C32.9529 18.3991 33.1028 17.6942 33.4026 17.0132C33.4487 16.8937 33.5236 16.8339 33.6274 16.8339C33.8349 16.8339 33.9387 16.9295 33.9387 17.1207C33.9387 17.1685 33.9214 17.2282 33.8868 17.2999C33.8637 17.3835 33.8349 17.4731 33.8003 17.5687C33.7196 17.7957 33.6562 18.0347 33.6101 18.2856C33.564 18.5364 33.5409 18.7993 33.5409 19.0741C33.5409 19.3847 33.5813 19.5938 33.662 19.7013C33.7427 19.8088 33.8464 19.8626 33.9732 19.8626C34.273 19.8626 34.6246 19.7192 35.0281 19.4325C35.4432 19.1458 35.8697 18.6918 36.3078 18.0705C36.6191 17.6284 36.9419 17.1028 37.2762 16.4934C37.6106 15.8841 37.9679 15.1852 38.3484 14.3967C38.8557 13.3572 39.3226 12.2999 39.7491 11.2246C39.4609 11.6069 39.1612 11.9773 38.8499 12.3357C38.5386 12.6942 38.2043 13.0287 37.8469 13.3393C36.89 14.1876 36.0945 14.6117 35.4604 14.6117C34.6996 14.6117 34.3191 14.1577 34.3191 13.2497C34.3191 12.9271 34.3767 12.5388 34.492 12.0848C34.6189 11.6308 34.7918 11.1111 35.0108 10.5257C35.0454 10.4301 35.0627 10.3525 35.0627 10.2927C35.0627 10.221 35.08 10.1494 35.1146 10.0777C35.299 9.65951 35.6046 9.19356 36.0311 8.67982C36.1234 8.57229 36.2041 8.51853 36.2732 8.51853C36.4462 8.51853 36.5326 8.64995 36.5326 8.91279C35.4143 10.6213 34.8552 12.0669 34.8552 13.2497C34.8552 13.7515 35.0454 14.0024 35.4259 14.0024C35.8524 14.0024 36.4462 13.6977 37.2071 13.0884C37.7489 12.6583 38.2504 12.1744 38.7116 11.6368C39.1727 11.0872 39.5877 10.5197 39.9567 9.9343C40.2103 9.54003 40.412 9.19356 40.5619 8.89487C40.7233 8.58424 40.8213 8.37516 40.8559 8.26763C40.9135 8.08842 40.9942 7.99881 41.098 7.99881C41.317 7.99881 41.4266 8.09439 41.4266 8.28555C41.4266 8.38113 41.3805 8.55437 41.2882 8.80526C41.2075 9.04421 41.1038 9.33095 40.9769 9.66548C40.7925 10.1553 40.5273 10.8124 40.1815 11.6368C39.8356 12.4612 39.4033 13.4409 38.8845 14.5759C38.2389 15.9857 37.6048 17.1386 36.9822 18.0347C36.5211 18.7157 36.0138 19.2832 35.4604 19.7372C34.9186 20.1912 34.4344 20.4182 34.0078 20.4182Z" fill="white"/>
<path d="M42.653 15.0956C42.457 15.0956 42.359 15 42.359 14.8088C42.359 14.7969 42.4282 14.6476 42.5666 14.3608C42.7049 14.0741 42.9009 13.6499 43.1545 13.0884L44.0365 11.1709C44.3939 10.3943 44.6475 9.77898 44.7974 9.32498C44.9588 8.87098 45.0395 8.57826 45.0395 8.44684C45.0395 8.25568 45.1317 8.1601 45.3162 8.1601C45.5006 8.1601 45.5929 8.25568 45.5929 8.44684C45.5929 8.60216 45.541 8.84708 45.4372 9.18161C45.345 9.50419 45.1894 9.92235 44.9703 10.4361L44.0884 12.5149C46.4979 9.36082 48.3136 7.78376 49.5357 7.78376C49.7663 7.78376 49.945 7.88531 50.0718 8.08842C50.1986 8.27958 50.262 8.49463 50.262 8.73358C50.262 9.30706 49.8643 10.3047 49.0688 11.7264C49.6798 11.0813 50.2966 10.4361 50.9191 9.79093C51.5532 9.13382 52.1873 8.48866 52.8214 7.85544C52.9828 7.70013 53.1154 7.62247 53.2191 7.62247C53.3575 7.62247 53.4727 7.69415 53.565 7.83752C53.6572 7.96894 53.7033 8.11231 53.7033 8.26763C53.7033 8.3871 53.6514 8.53645 53.5477 8.71566C53.3978 8.9785 53.2595 9.29511 53.1326 9.66548C53.0058 10.0239 52.8617 10.4301 52.7003 10.8841C52.5159 11.3979 52.3833 11.8459 52.3026 12.2282C52.2219 12.6105 52.1815 12.9212 52.1815 13.1601C52.1815 13.4588 52.2507 13.6798 52.389 13.8232C52.5274 13.9546 52.6657 14.0203 52.8041 14.0203C53.0462 14.0203 53.3113 13.9546 53.5996 13.8232C53.8878 13.6918 54.1241 13.5603 54.3086 13.4289C54.6775 13.178 55.0637 12.8674 55.4672 12.497C55.8707 12.1147 56.2569 11.7324 56.6259 11.3501C56.672 11.3023 56.7411 11.2784 56.8334 11.2784C57.0063 11.2784 57.0928 11.3501 57.0928 11.4934C57.0928 11.6249 57.0121 11.7742 56.8507 11.9415C56.3895 12.4194 55.9745 12.8315 55.6056 13.178C55.2366 13.5126 54.885 13.7873 54.5507 14.0024C54.3316 14.1338 54.0665 14.2712 53.7552 14.4146C53.4439 14.558 53.1096 14.6296 52.7522 14.6296C52.4179 14.6296 52.1354 14.5221 51.9048 14.3071C51.6858 14.092 51.5763 13.632 51.5763 12.9271C51.5763 12.6523 51.6224 12.3298 51.7146 11.9594C51.8068 11.5771 51.9452 11.1529 52.1296 10.687L53.0462 8.42892L50.5733 11.0096C50.285 11.3083 50.0487 11.5591 49.8643 11.7623C49.6798 11.9654 49.5299 12.1326 49.4146 12.264C49.1956 12.503 48.9996 12.736 48.8267 12.963C48.6653 13.19 48.5269 13.3871 48.4116 13.5544C48.3309 13.6858 48.2387 13.7515 48.1349 13.7515C47.9389 13.7515 47.841 13.6679 47.841 13.5006C47.841 13.1302 48.1638 12.276 48.8094 10.9379C49.455 9.59977 49.7778 8.79929 49.7778 8.53645C49.7778 8.41697 49.651 8.35724 49.3973 8.35724C48.3713 8.35724 46.544 10.0956 43.9154 13.5723C43.6964 13.8949 43.3332 14.3787 42.826 15.0239C42.7914 15.0717 42.7337 15.0956 42.653 15.0956Z" fill="white"/>
<path d="M59.5174 14.8088C59.0332 14.8088 58.6528 14.6356 58.3761 14.2891C58.0994 13.9427 57.9611 13.5185 57.9611 13.0167C57.9611 12.1565 58.2378 11.2724 58.7911 10.3644C58.941 10.1135 59.1139 9.86859 59.3099 9.62964C59.5059 9.37874 59.7192 9.13979 59.9498 8.91279C60.2956 8.56632 60.6588 8.27958 61.0392 8.05258C61.4197 7.82558 61.7886 7.71207 62.146 7.71207C62.734 7.71207 63.028 7.99881 63.028 8.57229C63.028 9.28913 62.6244 9.94027 61.8174 10.5257C61.0681 11.0514 60.3302 11.3142 59.6039 11.3142C59.4771 11.3142 59.3618 11.3083 59.258 11.2963C59.1658 11.2724 59.0794 11.2485 58.9987 11.2246C58.8834 11.4516 58.7796 11.7443 58.6874 12.1028C58.5951 12.4612 58.549 12.7718 58.549 13.0347C58.549 13.8232 58.8834 14.2175 59.552 14.2175C60.0939 14.2175 60.6069 14.1219 61.0911 13.9307C61.5753 13.7276 62.1518 13.3513 62.8204 12.8017C63.2355 12.4672 63.5467 12.1983 63.7543 11.9952C63.9618 11.7921 64.1866 11.5771 64.4287 11.3501C64.4979 11.3023 64.5613 11.2784 64.6189 11.2784C64.6766 11.2784 64.7342 11.2963 64.7918 11.3321C64.8495 11.368 64.8783 11.4218 64.8783 11.4934C64.8783 11.6249 64.763 11.81 64.5324 12.049C64.3365 12.2402 64.1289 12.4433 63.9099 12.6583C63.6909 12.8614 63.345 13.1482 62.8723 13.5185C62.365 13.9247 61.8117 14.2413 61.2122 14.4683C60.6127 14.6953 60.0478 14.8088 59.5174 14.8088ZM59.5002 10.7407C59.8691 10.7407 60.2207 10.681 60.555 10.5615C60.8894 10.4421 61.2064 10.2688 61.5062 10.0418C62.1748 9.52808 62.5092 9.04421 62.5092 8.59021C62.5092 8.3871 62.3881 8.28555 62.146 8.28555C61.6848 8.28555 61.1488 8.57826 60.5377 9.16369C60.238 9.45043 59.9901 9.71327 59.7941 9.95222C59.6097 10.1792 59.4367 10.4301 59.2753 10.7049C59.3445 10.7288 59.4195 10.7407 59.5002 10.7407Z" fill="white"/>
<path d="M64.9918 14.9343C64.8073 14.9343 64.7151 14.8566 64.7151 14.7013C64.7151 14.6416 64.7382 14.5699 64.7843 14.4863C64.8304 14.3907 64.8707 14.313 64.9053 14.2533L66.4617 11.0096C67.1304 9.59977 67.4647 8.81721 67.4647 8.6619C67.4647 8.49463 67.5454 8.411 67.7068 8.411C67.9258 8.411 68.0354 8.53047 68.0354 8.76942C68.0354 8.85306 67.9835 9.03227 67.8797 9.30706C67.776 9.58185 67.6434 9.89248 67.482 10.239C67.2053 10.8602 66.9747 11.3381 66.7903 11.6726C67.1361 11.2545 67.4878 10.8602 67.8452 10.4899C68.2025 10.1195 68.5657 9.76703 68.9346 9.4325C70.0299 8.44087 70.8715 7.94505 71.4594 7.94505C71.8629 7.94505 72.0647 8.14218 72.0647 8.53645C72.0647 8.89487 71.7707 9.70132 71.1827 10.9558C70.5948 12.2222 70.3008 13.0227 70.3008 13.3572C70.3008 13.5126 70.3527 13.5902 70.4564 13.5902C70.491 13.5902 70.5429 13.5783 70.6121 13.5544C70.6927 13.5185 70.7735 13.5006 70.8541 13.5006C71.0501 13.5006 71.1481 13.5962 71.1481 13.7873C71.1481 14.0263 70.9003 14.1458 70.4045 14.1458C70.174 14.1458 70.0068 14.092 69.903 13.9845C69.7993 13.865 69.7474 13.7097 69.7474 13.5185C69.7474 12.945 70.0299 12.0729 70.5948 10.902C71.1597 9.74314 71.4421 9.04421 71.4421 8.80526C71.4421 8.66189 71.3902 8.59021 71.2865 8.59021C71.0329 8.59021 70.6236 8.81124 70.0587 9.25329C69.4477 9.73119 68.8366 10.2808 68.2256 10.902C67.6146 11.5233 67.0324 12.2342 66.479 13.0347L65.2685 14.773C65.1993 14.8805 65.1071 14.9343 64.9918 14.9343Z" fill="white"/>
<path d="M74.217 15.7228C73.9979 15.7228 73.8884 15.5436 73.8884 15.1852C73.8884 14.6595 74.1709 13.7396 74.7358 12.4253C75.3122 11.1111 76.1653 9.39069 77.2952 7.26405C76.8571 7.26405 76.442 7.32378 76.0501 7.44326C75.6696 7.55079 75.4679 7.68818 75.4448 7.85544C75.4333 7.90323 75.4044 7.95102 75.3583 7.99881C75.3237 8.03466 75.2661 8.05258 75.1854 8.05258C75.0009 8.05258 74.9087 7.957 74.9087 7.76584C74.9087 7.4552 75.1451 7.19834 75.6177 6.99523C76.0904 6.79212 76.7533 6.69057 77.6064 6.69057L78.7997 4.64756C78.8804 4.51614 78.9668 4.37277 79.0591 4.21745C79.1513 4.05019 79.2551 3.87098 79.3703 3.67982C79.4856 3.51255 79.6182 3.42892 79.7681 3.42892C79.8603 3.42892 79.9295 3.45879 79.9756 3.51853C80.0217 3.56632 80.0448 3.62008 80.0448 3.67982C80.0448 3.85903 79.7911 4.33693 79.2839 5.11351C78.6498 6.08125 78.3097 6.60694 78.2636 6.69057C78.4365 6.69057 78.6959 6.70849 79.0418 6.74433C79.3876 6.76823 79.7969 6.81004 80.2696 6.86978C80.4425 6.88173 80.529 6.97133 80.529 7.1386C80.529 7.32976 80.4252 7.42534 80.2177 7.42534C80.137 7.42534 79.9756 7.41339 79.7335 7.38949C79.4914 7.35365 79.232 7.32378 78.9553 7.29989C78.6786 7.27599 78.4423 7.27002 78.2463 7.28197L77.9869 7.29989C75.6466 11.5651 74.4821 14.2175 74.4937 15.2569L74.511 15.4002V15.4361C74.511 15.6272 74.413 15.7228 74.217 15.7228Z" fill="white"/>
<path d="M85.8846 15.2569C85.8039 15.2569 85.7116 15.2151 85.6079 15.1314C85.5041 15.0478 85.4522 14.9582 85.4522 14.8626C85.4522 14.7551 85.5675 14.4803 85.7981 14.0382C86.0287 13.5962 86.3976 12.9331 86.9049 12.049C87.4121 11.1649 88.075 10.0179 88.8936 8.60813L91.159 4.6834C91.2858 4.44445 91.4414 4.16369 91.6259 3.84111C91.8103 3.51853 92.0351 3.13621 92.3003 2.69415C92.3695 2.58663 92.4444 2.53286 92.5251 2.53286C92.6058 2.53286 92.6865 2.57468 92.7672 2.65831C92.8479 2.73 92.8883 2.80765 92.8883 2.89129C92.8883 2.93908 92.6001 3.47074 92.0236 4.48627C91.4472 5.48985 90.5768 6.98925 89.4124 8.98448C88.9743 9.73716 88.4958 10.5675 87.977 11.4755C87.4698 12.3835 86.9279 13.3692 86.3515 14.4325C89.6948 13.5006 92.2657 13.0347 94.0642 13.0347C94.606 13.0347 95.0557 13.1302 95.4131 13.3214C95.782 13.5006 95.9664 13.6798 95.9664 13.859C95.9664 14.0621 95.8684 14.1637 95.6725 14.1637C95.5111 14.1637 95.4304 14.0741 95.4304 13.8949V13.8411C95.3151 13.7814 95.1191 13.7336 94.8424 13.6977C94.5657 13.6619 94.2487 13.644 93.8913 13.644C93.4532 13.644 92.9574 13.6858 92.4041 13.7694C91.8507 13.8411 91.2858 13.9367 90.7093 14.0562C90.1444 14.1637 89.6141 14.2772 89.1184 14.3967C88.6342 14.5042 88.173 14.6177 87.7349 14.7372C87.3084 14.8686 86.9106 14.9821 86.5417 15.0777C86.3227 15.1255 86.1612 15.1673 86.0575 15.2031C85.9653 15.239 85.9076 15.2569 85.8846 15.2569Z" fill="white"/>
<path d="M103.802 15.0956C103.237 15.0956 102.955 14.6715 102.955 13.8232C102.955 13.3692 103.059 12.8196 103.266 12.1744C101.871 13.859 100.776 14.7013 99.9805 14.7013C99.3233 14.7013 98.9948 14.2891 98.9948 13.4648C98.9948 13.1541 99.0409 12.7838 99.1331 12.3537C99.2369 11.9116 99.3694 11.4576 99.5309 10.9916C99.7038 10.5257 99.8882 10.0896 100.084 9.6834C100.28 9.27719 100.476 8.94863 100.672 8.69774C100.741 8.61411 100.828 8.57229 100.932 8.57229C100.989 8.57229 101.047 8.59618 101.105 8.64397C101.162 8.67982 101.191 8.73955 101.191 8.82319C101.191 8.89487 101.151 8.99642 101.07 9.12785C100.551 10.012 100.182 10.7826 99.9632 11.4397C99.6865 12.1924 99.5481 12.8435 99.5481 13.3931C99.5481 13.9068 99.675 14.1637 99.9286 14.1637C100.09 14.1637 100.303 14.0801 100.568 13.9128C100.834 13.7455 101.105 13.5424 101.381 13.3035C101.669 13.0526 101.917 12.8196 102.125 12.6045C102.701 11.9713 103.22 11.2963 103.681 10.5795C103.889 10.2449 104.073 9.92235 104.235 9.61172C104.408 9.28914 104.563 8.95461 104.701 8.60813C104.759 8.47671 104.805 8.38113 104.84 8.32139C104.886 8.24971 104.949 8.21387 105.03 8.21387C105.272 8.21387 105.393 8.30945 105.393 8.50061C105.393 8.62008 105.353 8.70371 105.272 8.7515C104.096 11.2246 103.508 12.9271 103.508 13.859C103.508 14.1099 103.531 14.2891 103.577 14.3967C103.624 14.4922 103.704 14.54 103.82 14.54C103.981 14.54 104.229 14.4325 104.563 14.2175C104.909 14.0024 105.313 13.6738 105.774 13.2318L107.589 11.5114C107.682 11.4158 107.768 11.368 107.849 11.368C108.033 11.368 108.126 11.4576 108.126 11.6368C108.126 11.7921 107.762 12.2103 107.036 12.8913C106.725 13.19 106.448 13.4409 106.206 13.644C105.964 13.8471 105.739 14.0263 105.532 14.1816C105.14 14.4683 104.794 14.6894 104.494 14.8447C104.194 15.012 103.964 15.0956 103.802 15.0956Z" fill="white"/>
<path d="M107.741 14.9343C107.545 14.9343 107.447 14.8387 107.447 14.6476C107.447 14.552 107.585 14.3489 107.862 14.0382C108.15 13.7157 108.588 13.2975 109.176 12.7838L111.251 10.9558C111.171 10.6332 111.096 10.3465 111.026 10.0956C110.969 9.84469 110.911 9.63561 110.854 9.46835C110.634 8.7754 110.438 8.33931 110.266 8.1601C110.196 8.08842 110.162 8.01076 110.162 7.92713C110.162 7.74792 110.248 7.65831 110.421 7.65831C110.686 7.65831 110.963 8.07647 111.251 8.91279C111.343 9.18758 111.43 9.46237 111.511 9.73716C111.591 10.012 111.672 10.2867 111.753 10.5615C113.009 9.48627 113.828 8.74553 114.208 8.33931C114.301 8.24374 114.364 8.17205 114.399 8.12426C114.433 8.07647 114.456 8.03466 114.468 7.99881C114.525 7.86739 114.623 7.80168 114.762 7.80168C114.946 7.80168 115.038 7.89129 115.038 8.0705C115.038 8.42892 114.001 9.45043 111.926 11.135C112.064 11.6368 112.208 12.1087 112.358 12.5508C112.508 12.9928 112.681 13.3572 112.877 13.644C113.084 13.9188 113.315 14.0562 113.569 14.0562C113.811 14.0562 114.064 13.9904 114.329 13.859C114.606 13.7276 114.883 13.5663 115.159 13.3752C115.436 13.1721 115.684 12.9809 115.903 12.8017C116.318 12.4672 116.629 12.1983 116.837 11.9952C117.044 11.7921 117.269 11.5771 117.511 11.3501C117.581 11.3023 117.644 11.2784 117.702 11.2784C117.759 11.2784 117.817 11.2963 117.875 11.3321C117.932 11.368 117.961 11.4218 117.961 11.4934C117.961 11.6249 117.846 11.81 117.615 12.049C117.419 12.2402 117.212 12.4433 116.993 12.6583C116.774 12.8614 116.428 13.1482 115.955 13.5185C115.747 13.6858 115.5 13.8531 115.211 14.0203C114.935 14.1876 114.652 14.325 114.364 14.4325C114.087 14.54 113.834 14.5938 113.603 14.5938C113.211 14.5938 112.877 14.4504 112.6 14.1637C112.335 13.865 112.11 13.4827 111.926 13.0167C111.741 12.5508 111.574 12.0609 111.424 11.5472L109.643 13.1243C109.286 13.4349 108.969 13.7336 108.692 14.0203C108.415 14.3071 108.173 14.5759 107.966 14.8268C107.919 14.8985 107.845 14.9343 107.741 14.9343Z" fill="white"/>
<path d="M123.473 15.0956C122.908 15.0956 122.626 14.6715 122.626 13.8232C122.626 13.3692 122.73 12.8196 122.937 12.1744C121.542 13.859 120.447 14.7013 119.651 14.7013C118.994 14.7013 118.666 14.2891 118.666 13.4648C118.666 13.1541 118.712 12.7838 118.804 12.3537C118.908 11.9116 119.04 11.4576 119.202 10.9916C119.375 10.5257 119.559 10.0896 119.755 9.6834C119.951 9.27719 120.147 8.94863 120.343 8.69774C120.412 8.61411 120.499 8.57229 120.602 8.57229C120.66 8.57229 120.718 8.59618 120.775 8.64397C120.833 8.67982 120.862 8.73955 120.862 8.82319C120.862 8.89487 120.822 8.99642 120.741 9.12785C120.222 10.012 119.853 10.7826 119.634 11.4397C119.357 12.1924 119.219 12.8435 119.219 13.3931C119.219 13.9068 119.346 14.1637 119.599 14.1637C119.761 14.1637 119.974 14.0801 120.239 13.9128C120.505 13.7455 120.775 13.5424 121.052 13.3035C121.34 13.0526 121.588 12.8196 121.796 12.6045C122.372 11.9713 122.891 11.2963 123.352 10.5795C123.56 10.2449 123.744 9.92235 123.905 9.61172C124.078 9.28914 124.234 8.95461 124.372 8.60813C124.43 8.47671 124.476 8.38113 124.511 8.32139C124.557 8.24971 124.62 8.21387 124.701 8.21387C124.943 8.21387 125.064 8.30945 125.064 8.50061C125.064 8.62008 125.024 8.70371 124.943 8.7515C123.767 11.2246 123.179 12.9271 123.179 13.859C123.179 14.1099 123.202 14.2891 123.248 14.3967C123.294 14.4922 123.375 14.54 123.49 14.54C123.652 14.54 123.9 14.4325 124.234 14.2175C124.58 14.0024 124.983 13.6738 125.445 13.2318L127.26 11.5114C127.353 11.4158 127.439 11.368 127.52 11.368C127.704 11.368 127.796 11.4576 127.796 11.6368C127.796 11.7921 127.433 12.2103 126.707 12.8913C126.396 13.19 126.119 13.4409 125.877 13.644C125.635 13.8471 125.41 14.0263 125.202 14.1816C124.81 14.4683 124.465 14.6894 124.165 14.8447C123.865 15.012 123.635 15.0956 123.473 15.0956Z" fill="white"/>
<path d="M127.879 14.9343C127.694 14.9343 127.602 14.8566 127.602 14.7013C127.602 14.6296 127.619 14.558 127.654 14.4863C127.7 14.4146 127.734 14.3548 127.757 14.3071L129.331 11.0096C130 9.59977 130.334 8.81721 130.334 8.6619C130.334 8.49463 130.415 8.411 130.576 8.411C130.795 8.411 130.905 8.5245 130.905 8.7515C130.905 8.87098 130.853 9.06213 130.749 9.32498C130.645 9.58782 130.513 9.89248 130.351 10.239C130.075 10.8602 129.844 11.3381 129.66 11.6726C130.006 11.2545 130.357 10.8602 130.715 10.4899C131.072 10.1195 131.435 9.76703 131.804 9.4325C132.899 8.44087 133.741 7.94505 134.329 7.94505C134.732 7.94505 134.934 8.14218 134.934 8.53645C134.934 8.91877 134.813 9.10992 134.571 9.10992C134.456 9.10992 134.369 9.00837 134.312 8.80526C134.277 8.66189 134.196 8.59021 134.069 8.59021C133.873 8.59021 133.493 8.81124 132.928 9.25329C132.306 9.73119 131.677 10.2987 131.043 10.9558C130.421 11.6129 129.758 12.4492 129.054 13.4648L128.19 14.7192C128.144 14.779 128.098 14.8268 128.051 14.8626C128.017 14.9104 127.959 14.9343 127.879 14.9343Z" fill="white"/>
<path d="M135.527 20.4182C134.824 20.4182 134.472 19.9881 134.472 19.1278C134.472 18.3991 134.622 17.6942 134.922 17.0132C134.968 16.8937 135.043 16.8339 135.147 16.8339C135.354 16.8339 135.458 16.9295 135.458 17.1207C135.458 17.1685 135.441 17.2282 135.406 17.2999C135.383 17.3835 135.354 17.4731 135.32 17.5687C135.239 17.7957 135.175 18.0347 135.129 18.2856C135.083 18.5364 135.06 18.7993 135.06 19.0741C135.06 19.3847 135.101 19.5938 135.181 19.7013C135.262 19.8088 135.366 19.8626 135.493 19.8626C135.792 19.8626 136.144 19.7192 136.547 19.4325C136.962 19.1458 137.389 18.6918 137.827 18.0705C138.138 17.6284 138.461 17.1028 138.796 16.4934C139.13 15.8841 139.487 15.1852 139.868 14.3967C140.375 13.3572 140.842 12.2999 141.268 11.2246C140.98 11.6069 140.68 11.9773 140.369 12.3357C140.058 12.6942 139.724 13.0287 139.366 13.3393C138.409 14.1876 137.614 14.6117 136.98 14.6117C136.219 14.6117 135.838 14.1577 135.838 13.2497C135.838 12.9271 135.896 12.5388 136.011 12.0848C136.138 11.6308 136.311 11.1111 136.53 10.5257C136.565 10.4301 136.582 10.3525 136.582 10.2927C136.582 10.221 136.599 10.1494 136.634 10.0777C136.818 9.65951 137.124 9.19356 137.55 8.67982C137.643 8.57229 137.723 8.51853 137.793 8.51853C137.965 8.51853 138.052 8.64995 138.052 8.91279C136.934 10.6213 136.374 12.0669 136.374 13.2497C136.374 13.7515 136.565 14.0024 136.945 14.0024C137.372 14.0024 137.965 13.6977 138.726 13.0884C139.268 12.6583 139.77 12.1744 140.231 11.6368C140.692 11.0872 141.107 10.5197 141.476 9.9343C141.73 9.54003 141.931 9.19356 142.081 8.89487C142.243 8.58424 142.341 8.37516 142.375 8.26763C142.433 8.08842 142.514 7.99881 142.617 7.99881C142.836 7.99881 142.946 8.09439 142.946 8.28555C142.946 8.38113 142.9 8.55437 142.808 8.80526C142.727 9.04421 142.623 9.33095 142.496 9.66548C142.312 10.1553 142.047 10.8124 141.701 11.6368C141.355 12.4612 140.923 13.4409 140.404 14.5759C139.758 15.9857 139.124 17.1386 138.502 18.0347C138.04 18.7157 137.533 19.2832 136.98 19.7372C136.438 20.1912 135.954 20.4182 135.527 20.4182Z" fill="white"/>
<path d="M151.335 16.2425C151.116 16.2425 151.006 16.141 151.006 15.9379C151.006 14.5281 151.802 12.3298 153.393 9.3429C153.508 9.12785 153.687 8.81124 153.929 8.39308C153.537 8.44087 153.208 8.53047 152.943 8.6619C152.689 8.78137 152.522 8.84111 152.442 8.84111C152.234 8.84111 152.13 8.73955 152.13 8.53645C152.13 8.22581 152.845 7.957 154.275 7.73C154.471 7.38352 154.718 6.95341 155.018 6.43967C155.329 5.92593 155.698 5.32259 156.125 4.62964C156.436 4.1159 156.701 3.66787 156.92 3.28555C157.139 2.89129 157.318 2.53286 157.457 2.21028C157.503 2.09081 157.578 2.03107 157.681 2.03107C157.9 2.03107 158.01 2.15055 158.01 2.38949C158.01 2.47313 157.872 2.75389 157.595 3.23179C157.33 3.69774 156.909 4.41458 156.332 5.38233L154.966 7.65831C155.404 7.61052 155.866 7.57468 156.35 7.55078C156.834 7.52689 157.33 7.51494 157.837 7.51494C158.852 7.51494 160.713 7.60455 163.423 7.78376C163.653 7.27002 163.895 6.76823 164.149 6.27838C164.414 5.77659 164.691 5.28077 164.979 4.79093C165.394 4.06213 165.757 3.49463 166.068 3.08842C166.38 2.67026 166.61 2.40144 166.76 2.28197C166.91 2.16249 167.031 2.10276 167.123 2.10276C167.296 2.10276 167.383 2.19834 167.383 2.38949C167.383 2.48507 167.331 2.56871 167.227 2.64039C167.02 2.79571 166.766 3.07647 166.466 3.48268C166.166 3.8889 165.832 4.42056 165.463 5.07767C164.91 6.04541 164.437 6.96536 164.045 7.83752C164.449 7.83752 164.65 7.93908 164.65 8.14218C164.65 8.22581 164.622 8.2975 164.564 8.35724C164.506 8.41697 164.42 8.44087 164.305 8.42892L163.786 8.39308C162.621 11.0813 162.039 12.9212 162.039 13.9128V14.3071C162.039 14.4504 161.941 14.5221 161.745 14.5221C161.561 14.5221 161.469 14.313 161.469 13.8949C161.469 12.8435 162.033 10.9916 163.163 8.33931C161.757 8.25568 160.598 8.19595 159.687 8.1601C158.788 8.12426 158.137 8.10634 157.733 8.10634C156.603 8.10634 155.572 8.1601 154.638 8.26763L153.894 9.61172C153.329 10.6511 152.885 11.583 152.563 12.4074C152.24 13.2198 152.021 13.8292 151.905 14.2354C151.79 14.7013 151.715 15.0597 151.681 15.3106C151.646 15.5615 151.617 15.7945 151.594 16.0096C151.583 16.1649 151.496 16.2425 151.335 16.2425Z" fill="white"/>
<path d="M169.125 14.3967C168.191 14.3967 167.724 13.8531 167.724 12.7658C167.724 12.264 167.84 11.7384 168.07 11.1888C168.301 10.6392 168.606 10.1314 168.987 9.66548C169.367 9.18758 169.788 8.79929 170.249 8.50061C170.722 8.20192 171.2 8.05258 171.684 8.05258C172.111 8.05258 172.422 8.21984 172.618 8.55437C172.814 8.8889 172.912 9.25927 172.912 9.66548C172.912 10.2031 172.808 10.7527 172.601 11.3142C172.393 11.8638 172.111 12.3716 171.754 12.8375C171.396 13.3035 170.993 13.6798 170.543 13.9666C170.093 14.2533 169.621 14.3967 169.125 14.3967ZM169.108 13.8232C169.177 13.8232 169.217 13.8172 169.229 13.8053C169.678 13.7455 170.093 13.5783 170.474 13.3035C170.854 13.0287 171.183 12.6882 171.46 12.282C171.748 11.8638 171.967 11.4158 172.117 10.9379C172.267 10.46 172.342 9.98806 172.342 9.52211C172.342 9.24732 172.267 9.03227 172.117 8.87695C171.967 8.72163 171.777 8.64397 171.546 8.64397C171.212 8.64397 170.854 8.78734 170.474 9.07408C170.105 9.36082 169.753 9.72522 169.419 10.1673C169.096 10.6093 168.831 11.0753 168.624 11.5651C168.416 12.043 168.312 12.4731 168.312 12.8554C168.312 13.5006 168.577 13.8232 169.108 13.8232Z" fill="white"/>
<path d="M175.23 15.7228C175.011 15.7228 174.901 15.5436 174.901 15.1852C174.901 14.6595 175.184 13.7396 175.748 12.4253C176.325 11.1111 177.178 9.39069 178.308 7.26405C177.87 7.26405 177.455 7.32378 177.063 7.44326C176.682 7.55079 176.48 7.68818 176.457 7.85544C176.446 7.90323 176.417 7.95102 176.371 7.99881C176.336 8.03466 176.279 8.05258 176.198 8.05258C176.014 8.05258 175.921 7.957 175.921 7.76584C175.921 7.4552 176.158 7.19834 176.63 6.99523C177.103 6.79212 177.766 6.69057 178.619 6.69057L179.812 4.64756C179.893 4.51614 179.979 4.37277 180.072 4.21745C180.164 4.05019 180.268 3.87098 180.383 3.67982C180.498 3.51255 180.631 3.42892 180.781 3.42892C180.873 3.42892 180.942 3.45879 180.988 3.51853C181.034 3.56632 181.057 3.62008 181.057 3.67982C181.057 3.85903 180.804 4.33693 180.297 5.11351C179.662 6.08125 179.322 6.60694 179.276 6.69057C179.449 6.69057 179.709 6.70849 180.054 6.74433C180.4 6.76823 180.81 6.81004 181.282 6.86978C181.455 6.88173 181.542 6.97133 181.542 7.1386C181.542 7.32976 181.438 7.42534 181.23 7.42534C181.15 7.42534 180.988 7.41339 180.746 7.38949C180.504 7.35365 180.245 7.32378 179.968 7.29989C179.691 7.27599 179.455 7.27002 179.259 7.28197L179 7.29989C176.659 11.5651 175.495 14.2175 175.506 15.2569L175.524 15.4002V15.4361C175.524 15.6272 175.426 15.7228 175.23 15.7228Z" fill="white"/>
<path d="M182.623 14.8088C182.139 14.8088 181.758 14.6356 181.481 14.2891C181.205 13.9427 181.066 13.5185 181.066 13.0167C181.066 12.1565 181.343 11.2724 181.896 10.3644C182.046 10.1135 182.219 9.86859 182.415 9.62964C182.611 9.37874 182.824 9.13979 183.055 8.91279C183.401 8.56632 183.764 8.27958 184.145 8.05258C184.525 7.82558 184.894 7.71207 185.251 7.71207C185.839 7.71207 186.133 7.99881 186.133 8.57229C186.133 9.28913 185.73 9.94027 184.923 10.5257C184.173 11.0514 183.436 11.3142 182.709 11.3142C182.582 11.3142 182.467 11.3083 182.363 11.2963C182.271 11.2724 182.185 11.2485 182.104 11.2246C181.989 11.4516 181.885 11.7443 181.793 12.1028C181.7 12.4612 181.654 12.7718 181.654 13.0347C181.654 13.8232 181.989 14.2175 182.657 14.2175C183.199 14.2175 183.712 14.1219 184.196 13.9307C184.681 13.7276 185.257 13.3513 185.926 12.8017C186.341 12.4672 186.652 12.1983 186.86 11.9952C187.067 11.7921 187.292 11.5771 187.534 11.3501C187.603 11.3023 187.667 11.2784 187.724 11.2784C187.782 11.2784 187.839 11.2963 187.897 11.3321C187.955 11.368 187.984 11.4218 187.984 11.4934C187.984 11.6249 187.868 11.81 187.638 12.049C187.442 12.2402 187.234 12.4433 187.015 12.6583C186.796 12.8614 186.45 13.1482 185.978 13.5185C185.47 13.9247 184.917 14.2413 184.317 14.4683C183.718 14.6953 183.153 14.8088 182.623 14.8088ZM182.605 10.7407C182.974 10.7407 183.326 10.681 183.66 10.5615C183.995 10.4421 184.312 10.2688 184.611 10.0418C185.28 9.52808 185.614 9.04421 185.614 8.59021C185.614 8.3871 185.493 8.28555 185.251 8.28555C184.79 8.28555 184.254 8.57826 183.643 9.16369C183.343 9.45043 183.095 9.71327 182.899 9.95222C182.715 10.1792 182.542 10.4301 182.381 10.7049C182.45 10.7288 182.525 10.7407 182.605 10.7407Z" fill="white"/>
<path d="M190.587 14.9701C190.057 14.9701 189.648 14.8029 189.359 14.4683C189.083 14.1219 188.944 13.6679 188.944 13.1063C188.944 12.7001 189.014 12.2103 189.152 11.6368C189.394 10.6691 189.803 9.54601 190.38 8.26763C190.829 7.29989 191.314 6.35007 191.832 5.41817C192.351 4.47432 192.922 3.54839 193.544 2.64039C194.536 1.1828 195.228 0.45401 195.62 0.45401C195.873 0.45401 196 0.525695 196 0.669064C196 0.872171 195.677 1.37994 195.032 2.19236L193.821 3.71566C192.772 5.02988 191.913 6.37396 191.244 7.74792C190.587 9.12187 190.074 10.4958 189.705 11.8698C189.602 12.264 189.55 12.6344 189.55 12.9809C189.55 13.8889 189.907 14.3429 190.622 14.3429C190.875 14.3429 191.135 14.2652 191.4 14.1099C191.665 13.9666 191.809 13.8949 191.832 13.8949C191.971 13.8949 192.04 13.9964 192.04 14.1995C192.04 14.3787 191.976 14.5161 191.85 14.6117C191.458 14.8507 191.037 14.9701 190.587 14.9701Z" fill="white"/>
</svg>
