<svg width="195" height="28" viewBox="0 0 195 28" fill="none" xmlns="http://www.w3.org/2000/svg">
<path d="M22.68 1.91799C22.68 1.91799 25.032 3.82199 26.404 5.10999C26.32 5.41799 25.984 5.55799 25.592 5.55799H0.616L0.392 4.77399H20.608L22.68 1.91799ZM10.164 0.65799C18.676 0.349989 15.288 7.01399 11.704 4.57799C11.564 3.17799 10.808 1.69399 9.996 0.79799L10.164 0.65799ZM19.432 14.574L21.672 12.586L25.116 15.862C24.864 16.114 24.584 16.198 23.94 16.226C20.944 17.066 15.988 17.794 12.712 18.102L12.572 17.906C14.896 17.066 18.144 15.61 19.768 14.574H19.432ZM16.184 17.038C16.128 17.458 15.848 17.682 15.288 17.766V22.89C15.288 25.606 14.588 27.006 9.912 27.37C9.8 26.11 9.632 25.242 9.072 24.626C8.54 24.066 7.924 23.646 6.188 23.338V23.002C6.188 23.002 9.828 23.226 10.472 23.226C10.836 23.226 10.976 23.114 10.976 22.778V16.646L16.184 17.038ZM17.164 7.51799L18.928 5.55799L22.708 8.35799C22.54 8.58199 22.204 8.83399 21.616 8.97399V12.614C21.588 12.81 19.46 13.426 18.172 13.426H17.444V7.51799H17.164ZM9.072 12.81C9.072 13.146 7.224 14.014 5.572 14.014H5.012V5.92199L9.296 7.51799H18.984V8.30199H9.072V12.81ZM19.376 11.494V12.278H7.28V11.494H19.376ZM21.28 14.574V15.358H2.744L2.492 14.574H21.28ZM22.96 16.87C22.96 16.87 25.312 18.718 26.712 19.95C26.656 20.258 26.32 20.398 25.9 20.398H0.224L0 19.614H20.888L22.96 16.87Z" fill="white"/>
<path d="M82.964 6.70599C82.768 7.01399 82.208 7.23799 81.312 6.81799L82.18 6.67799C80.752 8.72199 77.588 11.886 75.096 13.426L75.068 13.09H76.524C76.412 14.742 75.908 15.666 75.264 15.946L73.836 12.698C73.836 12.698 74.424 12.53 74.676 12.362C76.328 10.934 78.596 6.73399 79.268 4.46599L82.964 6.70599ZM81.396 2.36599C81.256 2.70199 80.752 2.98199 79.8 2.64599L80.724 2.50599C79.408 4.12999 76.972 6.34199 75.096 7.32199V7.01399H76.608C76.496 8.69399 75.992 9.61799 75.348 9.89799L73.892 6.59399C73.892 6.59399 74.368 6.48199 74.62 6.31399C75.628 5.36199 76.916 2.19799 77.224 0.57399L81.396 2.36599ZM65.38 6.70599C65.184 7.04199 64.624 7.23799 63.728 6.84599L64.596 6.70599C63.112 8.74999 59.808 11.914 57.232 13.454L57.204 13.118H58.632C58.52 14.77 58.016 15.694 57.372 15.974L55.944 12.726C55.944 12.726 56.56 12.558 56.812 12.39C58.548 10.962 60.984 6.76199 61.712 4.46599L65.38 6.70599ZM63.532 2.39399C63.392 2.72999 62.888 3.00999 61.908 2.67399L62.832 2.53399C61.544 4.15799 59.136 6.34199 57.316 7.37799L57.288 7.04199H58.772C58.66 8.69399 58.156 9.58999 57.54 9.89799L56.112 6.64999C56.112 6.64999 56.588 6.50999 56.84 6.34199C57.848 5.38999 59.108 2.25399 59.416 0.629991L63.532 2.39399ZM67.9 21.406C67.676 21.742 67.312 21.854 66.584 21.742C63.616 24.262 59.108 25.55 55.804 25.914L55.692 25.634C58.296 24.178 61.348 21.434 63.42 18.41L67.9 21.406ZM72.352 20.006C84.252 18.494 83.552 27.398 79.044 25.718C77.56 23.926 74.9 21.63 72.24 20.258L72.352 20.006ZM74.564 12.614C75.628 12.586 78.12 12.446 80.556 12.25L80.584 12.586C79.632 13.174 77.504 14.406 75.376 15.498L74.564 12.614ZM74.368 6.70599C75.432 6.67799 77.868 6.53799 80.192 6.36999L80.22 6.70599C79.38 7.29399 77.392 8.49799 75.376 9.58999L74.368 6.70599ZM79.492 9.72999C85.008 12.726 81.928 17.01 79.856 14.714C79.968 13.09 79.604 11.186 79.156 9.84199L79.492 9.72999ZM56.616 12.698C57.764 12.67 60.48 12.502 63.168 12.306L63.196 12.642C62.104 13.258 59.808 14.49 57.428 15.582L56.616 12.698ZM56.616 6.73399C57.68 6.70599 60.116 6.56599 62.44 6.39799L62.468 6.73399C61.628 7.32199 59.64 8.52599 57.624 9.61799L56.616 6.73399ZM72.688 15.526C72.632 15.89 72.436 16.198 71.652 16.31V26.418C71.652 26.698 69.776 27.37 68.068 27.37H67.34V15.078L72.688 15.526ZM78.792 15.05C78.792 15.05 81.144 16.814 82.572 18.018C82.488 18.326 82.18 18.466 81.76 18.466H56.336L56.112 17.682H76.72L78.792 15.05ZM61.572 9.78599C66.948 12.698 63.952 17.01 61.936 14.77C62.16 13.146 61.768 11.214 61.236 9.89799L61.572 9.78599ZM72.044 1.07799C71.96 1.55399 71.624 1.80599 71.008 1.86199C70.392 2.72999 69.272 3.98999 68.6 4.80199H67.844C67.9 3.70999 67.9 1.83399 67.872 0.57399L72.044 1.07799ZM70.028 4.38199L71.456 2.86999L74.368 5.08199C74.228 5.24999 73.948 5.41799 73.528 5.52999V13.902C73.5 14.098 71.904 14.742 70.812 14.742H70.252V4.38199H70.028ZM68.292 14.294C68.292 14.602 66.948 15.274 65.632 15.274H65.184V3.09399L68.404 4.38199H72.184V5.16599H68.292V14.294ZM71.932 12.614V13.398H66.528V12.614H71.932ZM71.932 8.44199V9.22599H66.528V8.44199H71.932Z" fill="white"/>
<path d="M128.268 8.46999H124.768V3.28999H128.268V8.46999ZM132.804 3.28999V8.46999H129.36V3.28999H132.804ZM130.368 18.018C130.368 18.018 132.076 19.418 133.084 20.398C133 20.706 132.72 20.846 132.328 20.846H124.992L124.768 20.062H128.884L130.368 18.018ZM113.904 18.634C114.352 18.634 114.464 18.634 114.772 18.046C115.388 16.926 115.388 16.926 120.4 4.66199L120.82 4.74599C119.868 8.41399 118.244 15.106 117.936 16.814C117.712 17.85 117.544 18.942 117.544 19.698C117.628 21.35 118.916 22.218 118.86 24.85C118.804 26.362 117.712 27.398 116.144 27.398C115.444 27.398 114.604 27.062 114.324 25.942C114.912 22.974 114.8 20.09 114.128 19.614C113.736 19.334 113.232 19.194 112.644 19.138V18.634C112.644 18.634 113.596 18.634 113.904 18.634ZM112.14 7.57399C120.428 8.07799 117.432 14.406 114.072 12.138C113.764 10.542 112.812 8.83399 111.944 7.71399L112.14 7.57399ZM114.436 1.10599C122.808 1.88999 119.7 8.18999 116.34 5.86599C116.032 4.21399 115.08 2.44999 114.212 1.24599L114.436 1.10599ZM120.764 6.56599L124.628 7.99399H133.252L135.072 5.92199L138.292 8.49799C138.096 8.77799 137.76 9.00199 137.116 9.11399V26.194C137.116 26.39 135.912 27.174 134.036 27.174H133.42V8.77799H124.292V26.418C124.292 26.67 123.2 27.342 121.408 27.342H120.764V6.56599ZM128.268 11.354C128.268 13.482 127.876 16.478 124.236 18.242L123.984 17.934C125.412 15.974 125.412 13.454 125.412 11.354V8.41399H128.268V11.354ZM132.188 8.41399C132.188 8.72199 132.188 9.05799 132.188 9.28199V13.93C132.188 14.238 132.244 14.35 132.552 14.35H133.112C133.28 14.35 133.504 14.322 133.644 14.322C133.784 14.322 134.064 14.322 134.176 14.294C134.344 14.294 134.596 14.238 134.792 14.182H135.044L135.156 14.238C135.856 14.518 136.08 14.826 136.08 15.358C136.08 16.422 135.212 16.842 132.72 16.842H131.572C129.612 16.842 129.388 16.254 129.388 14.574V8.41399H132.188ZM135.436 23.87V24.654H122.92V23.87H135.436ZM135.38 0.54599C135.38 0.54599 137.452 2.14199 138.712 3.26199C138.628 3.56999 138.32 3.70999 137.928 3.70999H120.092L119.868 2.92599H133.56L135.38 0.54599Z" fill="white"/>
<path d="M179.256 0.741989C188.496 0.881991 185.248 8.07799 181.44 5.58599C181.132 3.84999 180.096 2.05799 179.088 0.881991L179.256 0.741989ZM170.464 4.15799L175.112 5.72599H174.524V12.838C174.524 17.514 174.188 23.618 168.168 27.454L167.944 27.286C170.352 23.058 170.464 17.654 170.464 12.838V4.15799ZM191.24 3.06599C191.24 3.06599 193.424 4.85799 194.684 6.06199C194.6 6.36999 194.292 6.50999 193.9 6.50999H172.368V5.72599H189.308L191.24 3.06599ZM190.064 8.69399C190.064 8.69399 192.388 10.598 193.732 11.858C193.648 12.166 193.34 12.306 192.92 12.306H183.372V11.522H188.02L190.064 8.69399ZM186.368 7.23799C186.312 7.62999 186.144 7.90999 185.36 8.04999V17.598H181.3V6.84599L186.368 7.23799ZM189.14 23.702V24.486H176.904V23.702H189.14ZM175.448 15.47L179.508 16.982H187.32L189.14 14.938L192.5 17.486C192.332 17.738 192.052 17.906 191.408 18.046V26.362C191.408 26.53 190.204 27.174 188.16 27.174H187.46V17.766H179.228V26.558C179.228 26.782 178.08 27.398 176.148 27.398H175.448V15.47Z" fill="white"/>
</svg>
